<?xml version="1.0" encoding="UTF-8"?>
<svg version="1.1" xmlns="http://www.w3.org/2000/svg" width="32" height="32">
<path d="M0 0 C3.3380049 1.44225601 5.43843466 3.25221856 7.9375 5.875 C10.80961274 8.82763927 13.69665371 11.52249028 17 14 C16.42655063 16.86724686 16.1385485 17.8614515 14 20 C11.875 20.625 11.875 20.625 10 21 C9.90847656 21.58265625 9.81695313 22.1653125 9.72265625 22.765625 C8.82798931 25.53183847 7.53835231 26.76373964 5.4375 28.75 C4.47650391 29.67039062 4.47650391 29.67039062 3.49609375 30.609375 C3.00238281 31.06828125 2.50867188 31.5271875 2 32 C-0.87806415 30.69235781 -3.00692296 29.28858403 -5.25 27.0625 C-5.77078125 26.55847656 -6.2915625 26.05445312 -6.828125 25.53515625 C-8 24 -8 24 -8 21 C-9.175625 20.566875 -9.175625 20.566875 -10.375 20.125 C-13 19 -13 19 -15 17 C-14.99271443 13.69235338 -13.67083017 12.66161923 -11.34765625 10.2734375 C-10.26029041 9.29864913 -9.1649174 8.33273312 -8.0625 7.375 C-6.96990839 6.40380746 -5.8774549 5.43245951 -4.78515625 4.4609375 C-3.86605469 3.64882813 -2.94695313 2.83671875 -2 2 C-1.34 1.34 -0.68 0.68 0 0 Z M0 8 C-1.38232443 9.62626404 -2.71937515 11.2925002 -4 13 C-0.7 13 2.6 13 6 13 C4.71937515 11.2925002 3.38232443 9.62626404 2 8 C1.34 8 0.68 8 0 8 Z M0 21 C0 22.32 0 23.64 0 25 C0.99 24.67 1.98 24.34 3 24 C2.67 23.01 2.34 22.02 2 21 C1.34 21 0.68 21 0 21 Z " fill="#1777C5" transform="translate(15,0)"/>
<path d="M0 0 C0.33 0 0.66 0 1 0 C1.71619521 6.92322039 1.71619521 6.92322039 -0.125 9.69140625 C-1.67967489 11.24203251 -3.285176 12.62891324 -5 14 C-5.57234375 14.48855469 -6.1446875 14.97710937 -6.734375 15.48046875 C-8.13892349 16.67433496 -9.56723747 17.84014462 -11 19 C-12.32 18.34 -13.64 17.68 -15 17 C-14.64331053 12.43869832 -11.29034264 10.17921172 -8.0625 7.375 C-6.96990839 6.40380746 -5.8774549 5.43245951 -4.78515625 4.4609375 C-3.86605469 3.64882813 -2.94695313 2.83671875 -2 2 C-1.34 1.34 -0.68 0.68 0 0 Z " fill="#2095F2" transform="translate(15,0)"/>
<path d="M0 0 C4.36214281 0.93842789 6.06898999 2.53491491 8.484375 6.1796875 C8.89042969 6.93765625 8.89042969 6.93765625 9.3046875 7.7109375 C6.1171875 8.0234375 6.1171875 8.0234375 2.3046875 7.7109375 C-0.6328125 5.2109375 -0.6328125 5.2109375 -2.6953125 2.7109375 C-4.92186911 3.70904908 -6.45785562 4.41694326 -8.0078125 6.3359375 C-10.69324107 8.52406448 -13.36758561 7.8992994 -16.6953125 7.7109375 C-12.76928475 0.38235237 -8.00187161 -0.3552628 0 0 Z " fill="#1669C4" transform="translate(19.6953125,12.2890625)"/>
<path d="M0 0 C0.4375 3.1875 0.4375 3.1875 0 7 C-2.08545034 9.11158381 -4.41206193 10.56739143 -7 12 C-7.66 11.34 -8.32 10.68 -9 10 C-8.78670613 7.37648542 -8.20986523 6.22426774 -6.40625 4.296875 C-5.7771875 3.78640625 -5.148125 3.2759375 -4.5 2.75 C-3.8709375 2.22921875 -3.241875 1.7084375 -2.59375 1.171875 C-1 0 -1 0 0 0 Z " fill="#2095F2" transform="translate(16,14)"/>
<path d="M0 0 C2.625 -0.4375 2.625 -0.4375 6 0 C8.33122122 2.0949488 10.17328621 4.46073827 12 7 C7.50003317 7.44117322 5.65388883 7.52867608 2.0625 4.625 C0 2 0 2 0 0 Z " fill="#1054A0" transform="translate(17,13)"/>
<path d="M0 0 C3.96 0 7.92 0 12 0 C10.35 1.98 8.7 3.96 7 6 C3.28139821 4.46126823 2.64366459 3.52488612 0 0 Z " fill="#1877C5" transform="translate(10,26)"/>
<path d="M0 0 C1.11375 0.2475 1.11375 0.2475 2.25 0.5 C5.19006578 1.11925696 5.19006578 1.11925696 9 1 C9.33 1.66 9.66 2.32 10 3 C6.04 3 2.08 3 -2 3 C-1.34 2.01 -0.68 1.02 0 0 Z " fill="#135FB3" transform="translate(12,23)"/>
<path d="M0 0 C1.98 0 3.96 0 6 0 C6 1.98 6 3.96 6 6 C3.97945196 4.35830472 1.97956942 2.69088222 0 1 C0 0.67 0 0.34 0 0 Z " fill="#2095F3" transform="translate(10,26)"/>
</svg>
